<svg width="119" height="50" viewBox="0 0 119 50" fill="none" xmlns="http://www.w3.org/2000/svg">
<path d="M0 35.5146H118.439V50H0V35.5146Z" fill="#F7B84D"/>
<path d="M1.79346 40.1588H4.18354V47.4441H6.02403V40.1588H8.43968V38.4973H1.79346V40.1588Z" fill="black"/>
<path d="M11.2417 42.9196H12.8521C13.44 42.9196 13.9598 42.8343 14.4114 42.6639C14.863 42.4935 15.2166 42.2507 15.4722 41.9354C15.7364 41.6116 15.8685 41.2197 15.8685 40.7595C15.8685 40.3761 15.7918 40.0438 15.6384 39.7626C15.4935 39.4814 15.2848 39.2471 15.0121 39.0596C14.748 38.8722 14.4327 38.7316 14.0663 38.6379C13.6999 38.5441 13.2952 38.4973 12.8521 38.4973H9.87407V47.4441H13.031C13.6957 47.4441 14.2793 47.3546 14.7821 47.1757C15.2848 46.9968 15.6767 46.7198 15.9579 46.3449C16.2391 45.9615 16.3797 45.4758 16.3797 44.8879C16.3797 44.4448 16.286 44.0699 16.0985 43.7631C15.9196 43.4478 15.6725 43.1922 15.3572 42.9962C15.0419 42.7917 14.6841 42.6426 14.2836 42.5489C13.8831 42.4552 13.4656 42.4083 13.031 42.4083H11.2417V43.4052H12.8777C13.1077 43.4052 13.3207 43.4308 13.5167 43.4819C13.7127 43.5331 13.8831 43.6097 14.028 43.712C14.1728 43.8057 14.2836 43.9335 14.3603 44.0954C14.4455 44.2488 14.4881 44.4363 14.4881 44.6578C14.4881 44.9645 14.4157 45.2159 14.2708 45.4119C14.1345 45.6079 13.9428 45.7527 13.6957 45.8465C13.4571 45.9402 13.1844 45.987 12.8777 45.987H11.7018V39.9543H12.6859C13.0864 39.9543 13.4017 40.048 13.6317 40.2355C13.8618 40.4144 13.9768 40.6701 13.9768 41.0024C13.9768 41.2239 13.9215 41.4156 13.8107 41.5775C13.7084 41.7394 13.5593 41.863 13.3633 41.9482C13.1759 42.0334 12.9501 42.076 12.6859 42.076H11.2417V42.9196Z" fill="black"/>
<path d="M19.4962 47.4441H24.0208V45.8848H19.4962V47.4441ZM19.4962 40.0566H24.0208V38.4973H19.4962V40.0566ZM19.4962 43.4564H23.7651V41.9354H19.4962V43.4564ZM18.3331 38.4973V47.4441H20.1097V38.4973H18.3331Z" fill="black"/>
<path d="M26.218 38.4973V47.4441H28.0457V38.4973H26.218ZM27.33 40.0566H29.1066C29.4219 40.0566 29.6945 40.1077 29.9246 40.2099C30.1632 40.3122 30.3464 40.4613 30.4742 40.6573C30.602 40.8447 30.6659 41.0791 30.6659 41.3602C30.6659 41.6414 30.602 41.88 30.4742 42.076C30.3464 42.2635 30.1632 42.404 29.9246 42.4978C29.6945 42.5915 29.4219 42.6384 29.1066 42.6384H27.33V44.1977H29.1066C29.8138 44.1977 30.4145 44.0869 30.9087 43.8654C31.4115 43.6353 31.7906 43.3073 32.0463 42.8812C32.3104 42.4552 32.4425 41.9482 32.4425 41.3602C32.4425 40.7723 32.3104 40.2653 32.0463 39.8393C31.7906 39.4047 31.4115 39.0724 30.9087 38.8424C30.4145 38.6123 29.8138 38.4973 29.1066 38.4973H27.33V40.0566Z" fill="black"/>
<path d="M37.8272 41.5136L39.8849 47.0607H41.9683L37.8272 38.0499L33.686 47.0607H35.7822L37.8272 41.5136ZM40.9713 47.4441V48.85H42.7607V45.8337H32.8936V48.85H34.6958V47.4441H40.9713Z" fill="black"/>
<path d="M45.7157 42.9707C45.7157 42.5446 45.7838 42.1527 45.9202 41.7948C46.0565 41.4369 46.2482 41.1259 46.4953 40.8618C46.7424 40.5976 47.0364 40.3931 47.3772 40.2483C47.718 40.1034 48.0972 40.031 48.5147 40.031C48.9323 40.031 49.3114 40.1034 49.6523 40.2483C49.9931 40.3931 50.2871 40.5976 50.5342 40.8618C50.7813 41.1259 50.9687 41.4412 51.0965 41.8076C51.2244 42.1655 51.2883 42.5532 51.2883 42.9707C51.2883 43.3967 51.2201 43.7887 51.0838 44.1466C50.9474 44.5044 50.7557 44.8154 50.5086 45.0796C50.2615 45.3437 49.9675 45.5482 49.6267 45.6931C49.2859 45.8379 48.911 45.9104 48.502 45.9104C48.093 45.9104 47.718 45.8379 47.3772 45.6931C47.0364 45.5482 46.7424 45.3437 46.4953 45.0796C46.2482 44.8154 46.0565 44.5044 45.9202 44.1466C45.7838 43.7802 45.7157 43.3882 45.7157 42.9707ZM43.7857 42.9707C43.7857 43.6438 43.9007 44.2701 44.1308 44.8495C44.3608 45.4204 44.6846 45.9189 45.1022 46.3449C45.5282 46.7624 46.0267 47.0905 46.5976 47.3291C47.177 47.5591 47.8118 47.6742 48.502 47.6742C49.1921 47.6742 49.8227 47.5591 50.3936 47.3291C50.973 47.0905 51.4715 46.7624 51.889 46.3449C52.315 45.9189 52.6431 45.4161 52.8731 44.8367C53.1117 44.2573 53.231 43.6353 53.231 42.9707C53.231 42.289 53.1117 41.667 52.8731 41.1046C52.6431 40.5337 52.3108 40.0438 51.8762 39.6348C51.4502 39.2173 50.9517 38.8935 50.3808 38.6634C49.8099 38.4334 49.1836 38.3183 48.502 38.3183C47.8288 38.3183 47.2025 38.4334 46.6231 38.6634C46.0522 38.8935 45.5538 39.2173 45.1277 39.6348C44.7017 40.0438 44.3694 40.5337 44.1308 41.1046C43.9007 41.667 43.7857 42.289 43.7857 42.9707Z" fill="black"/>
<path d="M59.4206 38.4973L57.8485 41.3091L56.3148 38.4973H54.0781L56.7621 42.8173L53.7585 47.4441H55.9952L57.8357 44.2488L59.5995 47.4441H61.8618L58.9093 42.8173L61.6701 38.4973H59.4206Z" fill="black"/>
<path d="M70.6998 38.4973H63.7468V43.8909C63.7468 44.1806 63.717 44.449 63.6574 44.6961C63.5977 44.9432 63.5125 45.1563 63.4017 45.3352C63.291 45.5056 63.1546 45.642 62.9927 45.7442C62.8308 45.8379 62.6476 45.8848 62.4431 45.8848V47.4441C63.1674 47.4441 63.7596 47.3078 64.2197 47.0351C64.6799 46.7539 65.0207 46.3492 65.2422 45.8209C65.4638 45.2841 65.5745 44.6365 65.5745 43.8781V40.1588H68.8337V47.4441H70.6998V38.4973Z" fill="black"/>
<path d="M74.2572 47.4441H78.7817V45.8848H74.2572V47.4441ZM74.2572 40.0566H78.7817V38.4973H74.2572V40.0566ZM74.2572 43.4564H78.5261V41.9354H74.2572V43.4564ZM73.0941 38.4973V47.4441H74.8707V38.4973H73.0941Z" fill="black"/>
<path d="M81.618 43.4564H84.2382C84.5449 43.4564 84.8091 43.5032 85.0306 43.597C85.2607 43.6822 85.4354 43.8142 85.5547 43.9932C85.674 44.1721 85.7336 44.3979 85.7336 44.6706C85.7336 44.9518 85.674 45.1818 85.5547 45.3608C85.4354 45.5397 85.2607 45.6718 85.0306 45.757C84.8091 45.8422 84.5449 45.8848 84.2382 45.8848H81.618V47.4441H84.5705C85.1499 47.4441 85.6654 47.3333 86.117 47.1118C86.5771 46.8817 86.9393 46.5579 87.2034 46.1404C87.4761 45.7144 87.6124 45.2287 87.6124 44.6834C87.6124 44.1295 87.4761 43.6481 87.2034 43.2391C86.9393 42.8301 86.5771 42.5106 86.117 42.2805C85.6654 42.0504 85.1499 41.9354 84.5705 41.9354H81.618V43.4564ZM81.0173 38.4973V47.4441H82.8834V40.0566H86.9222V38.4973H81.0173Z" fill="black"/>
<path d="M90.8942 42.9707C90.8942 42.5446 90.9624 42.1527 91.0987 41.7948C91.235 41.4369 91.4268 41.1259 91.6739 40.8618C91.921 40.5976 92.2149 40.3931 92.5558 40.2483C92.8966 40.1034 93.2758 40.031 93.6933 40.031C94.1108 40.031 94.49 40.1034 94.8308 40.2483C95.1716 40.3931 95.4656 40.5976 95.7127 40.8618C95.9598 41.1259 96.1473 41.4412 96.2751 41.8076C96.4029 42.1655 96.4668 42.5532 96.4668 42.9707C96.4668 43.3967 96.3986 43.7887 96.2623 44.1466C96.126 44.5044 95.9342 44.8154 95.6871 45.0796C95.44 45.3437 95.1461 45.5482 94.8053 45.6931C94.4644 45.8379 94.0895 45.9104 93.6805 45.9104C93.2715 45.9104 92.8966 45.8379 92.5558 45.6931C92.2149 45.5482 91.921 45.3437 91.6739 45.0796C91.4268 44.8154 91.235 44.5044 91.0987 44.1466C90.9624 43.7802 90.8942 43.3882 90.8942 42.9707ZM88.9642 42.9707C88.9642 43.6438 89.0793 44.2701 89.3093 44.8495C89.5394 45.4204 89.8632 45.9189 90.2807 46.3449C90.7067 46.7624 91.2052 47.0905 91.7761 47.3291C92.3555 47.5591 92.9903 47.6742 93.6805 47.6742C94.3707 47.6742 95.0012 47.5591 95.5721 47.3291C96.1515 47.0905 96.65 46.7624 97.0675 46.3449C97.4936 45.9189 97.8216 45.4161 98.0517 44.8367C98.2903 44.2573 98.4095 43.6353 98.4095 42.9707C98.4095 42.289 98.2903 41.667 98.0517 41.1046C97.8216 40.5337 97.4893 40.0438 97.0547 39.6348C96.6287 39.2173 96.1302 38.8935 95.5593 38.6634C94.9884 38.4334 94.3622 38.3183 93.6805 38.3183C93.0074 38.3183 92.3811 38.4334 91.8017 38.6634C91.2308 38.8935 90.7323 39.2173 90.3063 39.6348C89.8802 40.0438 89.5479 40.5337 89.3093 41.1046C89.0793 41.667 88.9642 42.289 88.9642 42.9707Z" fill="black"/>
<path d="M101.586 42.9196H103.197C103.785 42.9196 104.304 42.8343 104.756 42.6639C105.208 42.4935 105.561 42.2507 105.817 41.9354C106.081 41.6116 106.213 41.2197 106.213 40.7595C106.213 40.3761 106.136 40.0438 105.983 39.7626C105.838 39.4814 105.629 39.2471 105.357 39.0596C105.093 38.8722 104.777 38.7316 104.411 38.6379C104.045 38.5441 103.64 38.4973 103.197 38.4973H100.219V47.4441H103.376C104.04 47.4441 104.624 47.3546 105.127 47.1757C105.629 46.9968 106.021 46.7198 106.303 46.3449C106.584 45.9615 106.724 45.4758 106.724 44.8879C106.724 44.4448 106.631 44.0699 106.443 43.7631C106.264 43.4478 106.017 43.1922 105.702 42.9962C105.387 42.7917 105.029 42.6426 104.628 42.5489C104.228 42.4552 103.81 42.4083 103.376 42.4083H101.586V43.4052H103.222C103.452 43.4052 103.665 43.4308 103.861 43.4819C104.057 43.5331 104.228 43.6097 104.373 43.712C104.517 43.8057 104.628 43.9335 104.705 44.0954C104.79 44.2488 104.833 44.4363 104.833 44.6578C104.833 44.9645 104.76 45.2159 104.615 45.4119C104.479 45.6079 104.287 45.7527 104.04 45.8465C103.802 45.9402 103.529 45.987 103.222 45.987H102.046V39.9543H103.031C103.431 39.9543 103.746 40.048 103.976 40.2355C104.206 40.4144 104.321 40.6701 104.321 41.0024C104.321 41.2239 104.266 41.4156 104.155 41.5775C104.053 41.7394 103.904 41.863 103.708 41.9482C103.52 42.0334 103.295 42.076 103.031 42.076H101.586V42.9196Z" fill="black"/>
<path d="M109.718 45.4247H114.447L114.229 43.9548H109.935L109.718 45.4247ZM112.056 41.4114L113.399 44.5044L113.386 44.9901L114.523 47.4441H116.607L112.056 37.9604L107.532 47.4441H109.602L110.766 44.9006L110.727 44.4916L112.056 41.4114Z" fill="black"/>
<path d="M15.6136 2.38582H3.68452V8.1118C3.68452 8.65259 3.50956 8.97865 3.15964 9.08999C2.82563 9.18542 2.42004 9.23314 1.94287 9.23314V13.3606C3.56523 13.3606 4.82177 13.2254 5.71247 12.955C6.60318 12.6687 7.2235 12.2472 7.57342 11.6905C7.92334 11.1179 8.0983 10.4022 8.0983 9.5433V6.56102H11.1999V13.3606H15.6136V2.38582Z" fill="#030504"/>
<path d="M18.2401 7.87322C18.2401 9.05023 18.5264 10.0682 19.099 10.9271C19.6716 11.786 20.4589 12.446 21.461 12.9073C22.463 13.3686 23.6003 13.5992 24.8727 13.5992C26.1451 13.5992 27.2824 13.3686 28.2844 12.9073C29.2865 12.446 30.0738 11.786 30.6464 10.9271C31.219 10.0682 31.5053 9.05023 31.5053 7.87322C31.5053 6.68031 31.219 5.6544 30.6464 4.79551C30.0738 3.93661 29.2865 3.27653 28.2844 2.81527C27.2824 2.35401 26.1451 2.12338 24.8727 2.12338C23.6003 2.12338 22.463 2.35401 21.461 2.81527C20.4589 3.27653 19.6716 3.93661 19.099 4.79551C18.5264 5.6544 18.2401 6.68031 18.2401 7.87322ZM23.0356 7.87322C23.0356 7.42787 23.1231 7.05409 23.298 6.75188C23.473 6.44968 23.6957 6.21905 23.9661 6.05999C24.2524 5.90094 24.5546 5.82141 24.8727 5.82141C25.1908 5.82141 25.4851 5.90094 25.7554 6.05999C26.0417 6.21905 26.2724 6.44968 26.4473 6.75188C26.6223 7.05409 26.7098 7.42787 26.7098 7.87322C26.7098 8.31857 26.6223 8.69235 26.4473 8.99456C26.2724 9.29676 26.0417 9.52739 25.7554 9.68645C25.4851 9.82959 25.1908 9.90117 24.8727 9.90117C24.5546 9.90117 24.2524 9.82959 23.9661 9.68645C23.6957 9.52739 23.473 9.29676 23.298 8.99456C23.1231 8.69235 23.0356 8.31857 23.0356 7.87322Z" fill="#030504"/>
<path d="M38.6201 0V15.7464H42.9146V0H38.6201ZM32.9418 7.87322C32.9418 9.05023 33.244 10.0682 33.8484 10.9271C34.4687 11.786 35.3594 12.446 36.5205 12.9073C37.6817 13.3686 39.0972 13.5992 40.7673 13.5992C42.4374 13.5992 43.853 13.3686 45.0141 12.9073C46.1911 12.446 47.0818 11.786 47.6862 10.9271C48.2906 10.0682 48.5928 9.05023 48.5928 7.87322C48.5928 6.68031 48.2906 5.6544 47.6862 4.79551C47.0818 3.93661 46.1911 3.27653 45.0141 2.81527C43.853 2.35401 42.4374 2.12338 40.7673 2.12338C39.0972 2.12338 37.6817 2.35401 36.5205 2.81527C35.3594 3.27653 34.4687 3.93661 33.8484 4.79551C33.244 5.6544 32.9418 6.68031 32.9418 7.87322ZM37.0216 7.87322C37.0216 7.42787 37.1329 7.05409 37.3556 6.75188C37.5783 6.44968 37.96 6.21905 38.5008 6.05999C39.0575 5.90094 39.813 5.82141 40.7673 5.82141C41.7216 5.82141 42.4692 5.90094 43.01 6.05999C43.5508 6.21905 43.9325 6.44968 44.1552 6.75188C44.3938 7.05409 44.5131 7.42787 44.5131 7.87322C44.5131 8.31857 44.3938 8.69235 44.1552 8.99456C43.9325 9.29676 43.5508 9.52739 43.01 9.68645C42.4692 9.82959 41.7216 9.90117 40.7673 9.90117C39.813 9.90117 39.0575 9.82959 38.5008 9.68645C37.96 9.52739 37.5783 9.29676 37.3556 8.99456C37.1329 8.69235 37.0216 8.31857 37.0216 7.87322Z" fill="#030504"/>
<path d="M49.4236 2.38582V6.08385H57.8932V2.38582H49.4236ZM51.4515 2.86299V13.3606H55.8653V2.86299H51.4515Z" fill="#030504"/>
<path d="M59.0918 9.66259H64.3406V5.72598H59.0918V9.66259Z" fill="#030504"/>
<path d="M15.6136 19.4274H3.68452V25.1534C3.68452 25.6942 3.50956 26.0203 3.15964 26.1316C2.82563 26.227 2.42004 26.2747 1.94287 26.2747V30.4022C3.56523 30.4022 4.82177 30.267 5.71247 29.9966C6.60318 29.7103 7.2235 29.2888 7.57342 28.7321C7.92334 28.1595 8.0983 27.4438 8.0983 26.5849V23.6026H11.1999V30.4022H15.6136V19.4274Z" fill="#030504"/>
<path d="M20.7691 25.8691H31.1951C31.2269 25.6147 31.2428 25.384 31.2428 25.1773C31.2428 24.9546 31.2428 24.7955 31.2428 24.7001C31.2428 23.539 31.0043 22.5529 30.5271 21.7417C30.0658 20.9146 29.366 20.2863 28.4276 19.8569C27.4891 19.4115 26.3042 19.1888 24.8727 19.1888C23.5366 19.1888 22.4073 19.3797 21.4848 19.7614C20.5782 20.1432 19.8625 20.676 19.3376 21.3599C18.8286 22.0439 18.4946 22.8392 18.3355 23.7458C18.3037 23.9366 18.2799 24.1275 18.264 24.3184C18.2481 24.5092 18.2401 24.708 18.2401 24.9148C18.2401 26.0123 18.4866 26.9984 18.9797 27.8732C19.4887 28.7321 20.2521 29.4081 21.2701 29.9012C22.288 30.3943 23.5684 30.6408 25.1113 30.6408C26.2247 30.6408 27.179 30.4976 27.9743 30.2113C28.7854 29.9251 29.4694 29.5195 30.0261 28.9946C30.5828 28.4697 31.044 27.8494 31.4099 27.1336L27.1631 26.4656C27.0358 26.7042 26.8609 26.903 26.6382 27.0621C26.4314 27.2211 26.1769 27.3404 25.8747 27.4199C25.5884 27.4995 25.2544 27.5392 24.8727 27.5392C24.5546 27.5392 24.2444 27.4677 23.9422 27.3245C23.64 27.1654 23.3935 26.8951 23.2026 26.5133C23.0117 26.1316 22.9163 25.5988 22.9163 24.9148L22.964 24.4377C22.964 23.9128 23.0277 23.4754 23.1549 23.1255C23.298 22.7596 23.4969 22.4892 23.7514 22.3143C24.0217 22.1393 24.3558 22.0518 24.7534 22.0518C25.0715 22.0518 25.334 22.1075 25.5407 22.2188C25.7475 22.3302 25.9065 22.5051 26.0179 22.7437C26.1451 22.9664 26.2326 23.2606 26.2803 23.6265H20.7691V25.8691Z" fill="#030504"/>
<path d="M37.6441 24.9148C37.6441 24.5013 37.7555 24.1355 37.9781 23.8173C38.2008 23.4833 38.4951 23.2209 38.8609 23.03C39.2426 22.8232 39.6482 22.7199 40.0777 22.7199C40.3481 22.7199 40.6582 22.7676 41.0081 22.863C41.3581 22.9425 41.708 23.0857 42.0579 23.2925C42.4078 23.4833 42.7021 23.7537 42.9407 24.1036V19.8807C42.5589 19.7058 42.1215 19.5467 41.6285 19.4036C41.1513 19.2604 40.4753 19.1888 39.6005 19.1888C38.2962 19.1888 37.1351 19.4195 36.1172 19.8807C35.0992 20.342 34.296 21.0021 33.7075 21.861C33.1349 22.704 32.8486 23.7219 32.8486 24.9148C32.8486 26.0918 33.1349 27.1098 33.7075 27.9687C34.296 28.8276 35.0992 29.4876 36.1172 29.9489C37.1351 30.4102 38.2962 30.6408 39.6005 30.6408C40.4753 30.6408 41.1513 30.5692 41.6285 30.4261C42.1215 30.2829 42.5589 30.108 42.9407 29.9012V25.7021C42.7021 26.0362 42.4237 26.3066 42.1056 26.5133C41.7875 26.7201 41.4535 26.8712 41.1036 26.9666C40.7696 27.0621 40.4276 27.1098 40.0777 27.1098C39.6482 27.1098 39.2426 27.0302 38.8609 26.8712C38.4951 26.6962 38.2008 26.4497 37.9781 26.1316C37.7555 25.7976 37.6441 25.392 37.6441 24.9148Z" fill="#030504"/>
<path d="M44.2512 19.4274V23.1255H52.7209V19.4274H44.2512ZM46.2791 19.9046V30.4022H50.6929V19.9046H46.2791Z" fill="#030504"/>
<path d="M55.16 26.227H64.4647V23.0062H55.16V26.227ZM62.6276 19.4274V30.4022H67.0414V19.4274H62.6276ZM54.0387 19.4274V30.4022H58.4524V19.4274H54.0387Z" fill="#030504"/>
<path d="M81.703 23.2447L81.8223 18.5924L69.5353 26.5849L69.416 31.2373L81.703 23.2447ZM73.8298 19.4274H69.416V31.2373L73.8298 27.4199V19.4274ZM81.8223 18.5924L77.4085 22.4097V30.4022H81.8223V18.5924Z" fill="#030504"/>
<path d="M96.4979 26.7042V19.4274H91.8456V26.7042H88.8633V19.4274H84.2109V30.4022H93.9928V33.0266H98.4066V26.7042H96.4979Z" fill="#030504"/>
<path d="M112.728 19.4274V30.4022H117.38V19.4274H112.728ZM99.8446 19.4274V30.4022H104.497V19.4274H99.8446ZM103.71 25.6067H106.095C106.239 25.6067 106.366 25.6385 106.477 25.7021C106.589 25.7499 106.676 25.8294 106.74 25.9407C106.803 26.0362 106.835 26.1475 106.835 26.2747C106.835 26.402 106.803 26.5213 106.74 26.6326C106.676 26.728 106.589 26.8076 106.477 26.8712C106.366 26.9189 106.239 26.9428 106.095 26.9428H103.71V30.4022H107.121C107.885 30.4022 108.569 30.2273 109.173 29.8773C109.778 29.5115 110.255 29.0184 110.605 28.3981C110.955 27.7619 111.13 27.0541 111.13 26.2747C111.13 25.4795 110.955 24.8353 110.605 24.3422C110.255 23.8332 109.778 23.4595 109.173 23.2209C108.569 22.9823 107.885 22.863 107.121 22.863H103.71V25.6067Z" fill="#030504"/>
</svg>
